<mxfile host="app.diagrams.net" modified="2022-10-17T07:40:45.417Z" agent="5.0 (Macintosh; Intel Mac OS X 10_15_7) AppleWebKit/537.36 (KHTML, like Gecko) Chrome/99.0.4844.84 Safari/537.36" etag="L40Y2j1S6cFNJQCL4bQP" version="20.4.0" type="github">
  <diagram id="-bRVjWf50syRQSRy9VFX" name="第 1 页">
    <mxGraphModel dx="1426" dy="712" grid="1" gridSize="10" guides="1" tooltips="1" connect="1" arrows="1" fold="1" page="1" pageScale="1" pageWidth="827" pageHeight="1169" math="0" shadow="0">
      <root>
        <mxCell id="0" />
        <mxCell id="1" parent="0" />
        <mxCell id="c2ixvgZk76cDXogd91zL-6" value="" style="edgeStyle=orthogonalEdgeStyle;rounded=0;orthogonalLoop=1;jettySize=auto;html=1;fillColor=#d5e8d4;strokeColor=#82b366;" edge="1" parent="1" source="c2ixvgZk76cDXogd91zL-2" target="c2ixvgZk76cDXogd91zL-5">
          <mxGeometry relative="1" as="geometry" />
        </mxCell>
        <mxCell id="c2ixvgZk76cDXogd91zL-34" value="" style="edgeStyle=orthogonalEdgeStyle;rounded=0;orthogonalLoop=1;jettySize=auto;html=1;" edge="1" parent="1" source="c2ixvgZk76cDXogd91zL-2" target="c2ixvgZk76cDXogd91zL-33">
          <mxGeometry relative="1" as="geometry" />
        </mxCell>
        <mxCell id="c2ixvgZk76cDXogd91zL-2" value="文件上传" style="rounded=1;whiteSpace=wrap;html=1;fillColor=#d5e8d4;strokeColor=#82b366;" vertex="1" parent="1">
          <mxGeometry x="297.5" y="10" width="120" height="60" as="geometry" />
        </mxCell>
        <mxCell id="c2ixvgZk76cDXogd91zL-8" value="" style="edgeStyle=orthogonalEdgeStyle;rounded=0;orthogonalLoop=1;jettySize=auto;html=1;fillColor=#d5e8d4;strokeColor=#82b366;" edge="1" parent="1" source="c2ixvgZk76cDXogd91zL-5" target="c2ixvgZk76cDXogd91zL-7">
          <mxGeometry relative="1" as="geometry" />
        </mxCell>
        <mxCell id="c2ixvgZk76cDXogd91zL-11" value="" style="edgeStyle=orthogonalEdgeStyle;rounded=0;orthogonalLoop=1;jettySize=auto;html=1;fillColor=#d5e8d4;strokeColor=#82b366;" edge="1" parent="1" source="c2ixvgZk76cDXogd91zL-5" target="c2ixvgZk76cDXogd91zL-10">
          <mxGeometry relative="1" as="geometry" />
        </mxCell>
        <mxCell id="c2ixvgZk76cDXogd91zL-5" value="bucketExists" style="rhombus;whiteSpace=wrap;html=1;rounded=1;fillColor=#d5e8d4;strokeColor=#82b366;" vertex="1" parent="1">
          <mxGeometry x="307.5" y="140" width="100" height="90" as="geometry" />
        </mxCell>
        <mxCell id="c2ixvgZk76cDXogd91zL-15" style="edgeStyle=orthogonalEdgeStyle;rounded=0;orthogonalLoop=1;jettySize=auto;html=1;exitX=0.5;exitY=1;exitDx=0;exitDy=0;entryX=1;entryY=0.5;entryDx=0;entryDy=0;fillColor=#d5e8d4;strokeColor=#82b366;" edge="1" parent="1" source="c2ixvgZk76cDXogd91zL-7" target="c2ixvgZk76cDXogd91zL-10">
          <mxGeometry relative="1" as="geometry" />
        </mxCell>
        <mxCell id="c2ixvgZk76cDXogd91zL-7" value="创建bucket, 设置region&lt;br&gt;makeBucket(&#39;marketing_cms&#39;, &#39;us-east-1&#39;)" style="whiteSpace=wrap;html=1;rounded=1;fillColor=#d5e8d4;strokeColor=#82b366;" vertex="1" parent="1">
          <mxGeometry x="477.5" y="155" width="260" height="60" as="geometry" />
        </mxCell>
        <mxCell id="c2ixvgZk76cDXogd91zL-9" value="否" style="text;html=1;align=center;verticalAlign=middle;resizable=0;points=[];autosize=1;" vertex="1" parent="1">
          <mxGeometry x="417.5" y="155" width="40" height="30" as="geometry" />
        </mxCell>
        <mxCell id="c2ixvgZk76cDXogd91zL-14" value="" style="edgeStyle=orthogonalEdgeStyle;rounded=0;orthogonalLoop=1;jettySize=auto;html=1;fillColor=#d5e8d4;strokeColor=#82b366;" edge="1" parent="1" source="c2ixvgZk76cDXogd91zL-10" target="c2ixvgZk76cDXogd91zL-13">
          <mxGeometry relative="1" as="geometry" />
        </mxCell>
        <mxCell id="c2ixvgZk76cDXogd91zL-10" value="定义meta&lt;br&gt;const metaData = { &#39;Content-Type&#39;: mimetype, &#39;Content-Length&#39;: size, &#39;x-amz-acl&#39;: &#39;public-read&#39; };" style="whiteSpace=wrap;html=1;rounded=1;fillColor=#d5e8d4;strokeColor=#82b366;" vertex="1" parent="1">
          <mxGeometry x="252.5" y="280" width="210" height="100" as="geometry" />
        </mxCell>
        <mxCell id="c2ixvgZk76cDXogd91zL-12" value="是" style="text;html=1;align=center;verticalAlign=middle;resizable=0;points=[];autosize=1;" vertex="1" parent="1">
          <mxGeometry x="307.5" y="235" width="40" height="30" as="geometry" />
        </mxCell>
        <mxCell id="c2ixvgZk76cDXogd91zL-38" value="" style="edgeStyle=orthogonalEdgeStyle;rounded=0;orthogonalLoop=1;jettySize=auto;html=1;" edge="1" parent="1" source="c2ixvgZk76cDXogd91zL-13" target="c2ixvgZk76cDXogd91zL-37">
          <mxGeometry relative="1" as="geometry" />
        </mxCell>
        <mxCell id="c2ixvgZk76cDXogd91zL-13" value="存储文件&lt;br&gt;fPutObject(bucketName, encodeURI(filename), path, metaData, callback)" style="whiteSpace=wrap;html=1;rounded=1;fillColor=#d5e8d4;strokeColor=#82b366;" vertex="1" parent="1">
          <mxGeometry x="140" y="435" width="435" height="60" as="geometry" />
        </mxCell>
        <mxCell id="c2ixvgZk76cDXogd91zL-20" value="" style="edgeStyle=orthogonalEdgeStyle;rounded=0;orthogonalLoop=1;jettySize=auto;html=1;fillColor=#dae8fc;strokeColor=#6c8ebf;" edge="1" parent="1" source="c2ixvgZk76cDXogd91zL-16" target="c2ixvgZk76cDXogd91zL-19">
          <mxGeometry relative="1" as="geometry" />
        </mxCell>
        <mxCell id="c2ixvgZk76cDXogd91zL-22" value="" style="edgeStyle=orthogonalEdgeStyle;rounded=0;orthogonalLoop=1;jettySize=auto;html=1;fillColor=#dae8fc;strokeColor=#6c8ebf;" edge="1" parent="1" source="c2ixvgZk76cDXogd91zL-16" target="c2ixvgZk76cDXogd91zL-21">
          <mxGeometry relative="1" as="geometry" />
        </mxCell>
        <mxCell id="c2ixvgZk76cDXogd91zL-16" value="通过数据库字段&lt;br&gt;确认是jrss还是hsp" style="rounded=1;whiteSpace=wrap;html=1;fillColor=#dae8fc;strokeColor=#6c8ebf;" vertex="1" parent="1">
          <mxGeometry x="297.5" y="710" width="120" height="60" as="geometry" />
        </mxCell>
        <mxCell id="c2ixvgZk76cDXogd91zL-24" value="" style="edgeStyle=orthogonalEdgeStyle;rounded=0;orthogonalLoop=1;jettySize=auto;html=1;fillColor=#dae8fc;strokeColor=#6c8ebf;" edge="1" parent="1" source="c2ixvgZk76cDXogd91zL-19" target="c2ixvgZk76cDXogd91zL-23">
          <mxGeometry relative="1" as="geometry" />
        </mxCell>
        <mxCell id="c2ixvgZk76cDXogd91zL-19" value="jrss" style="rounded=1;whiteSpace=wrap;html=1;fillColor=#dae8fc;strokeColor=#6c8ebf;" vertex="1" parent="1">
          <mxGeometry x="162.5" y="790" width="120" height="60" as="geometry" />
        </mxCell>
        <mxCell id="c2ixvgZk76cDXogd91zL-28" value="" style="edgeStyle=orthogonalEdgeStyle;rounded=0;orthogonalLoop=1;jettySize=auto;html=1;" edge="1" parent="1" source="c2ixvgZk76cDXogd91zL-21" target="c2ixvgZk76cDXogd91zL-27">
          <mxGeometry relative="1" as="geometry" />
        </mxCell>
        <mxCell id="c2ixvgZk76cDXogd91zL-21" value="hsp" style="rounded=1;whiteSpace=wrap;html=1;fillColor=#dae8fc;strokeColor=#6c8ebf;" vertex="1" parent="1">
          <mxGeometry x="432.5" y="790" width="120" height="60" as="geometry" />
        </mxCell>
        <mxCell id="c2ixvgZk76cDXogd91zL-26" value="" style="edgeStyle=orthogonalEdgeStyle;rounded=0;orthogonalLoop=1;jettySize=auto;html=1;" edge="1" parent="1" source="c2ixvgZk76cDXogd91zL-23" target="c2ixvgZk76cDXogd91zL-25">
          <mxGeometry relative="1" as="geometry" />
        </mxCell>
        <mxCell id="c2ixvgZk76cDXogd91zL-23" value="通过cacheName&lt;br&gt;查找文件" style="rounded=1;whiteSpace=wrap;html=1;fillColor=#dae8fc;strokeColor=#6c8ebf;" vertex="1" parent="1">
          <mxGeometry x="162.5" y="880" width="120" height="60" as="geometry" />
        </mxCell>
        <mxCell id="c2ixvgZk76cDXogd91zL-25" value="返回文件流&lt;br&gt;res.write(buffer, &#39;binary&#39;)" style="rounded=1;whiteSpace=wrap;html=1;fillColor=#dae8fc;strokeColor=#6c8ebf;" vertex="1" parent="1">
          <mxGeometry x="162.5" y="990" width="120" height="60" as="geometry" />
        </mxCell>
        <mxCell id="c2ixvgZk76cDXogd91zL-30" value="" style="edgeStyle=orthogonalEdgeStyle;rounded=0;orthogonalLoop=1;jettySize=auto;html=1;" edge="1" parent="1" source="c2ixvgZk76cDXogd91zL-27" target="c2ixvgZk76cDXogd91zL-29">
          <mxGeometry relative="1" as="geometry" />
        </mxCell>
        <mxCell id="c2ixvgZk76cDXogd91zL-27" value="数据库返回hspUrl" style="rounded=1;whiteSpace=wrap;html=1;fillColor=#dae8fc;strokeColor=#6c8ebf;" vertex="1" parent="1">
          <mxGeometry x="432.5" y="880" width="120" height="60" as="geometry" />
        </mxCell>
        <mxCell id="c2ixvgZk76cDXogd91zL-32" value="" style="edgeStyle=orthogonalEdgeStyle;rounded=0;orthogonalLoop=1;jettySize=auto;html=1;" edge="1" parent="1" source="c2ixvgZk76cDXogd91zL-29" target="c2ixvgZk76cDXogd91zL-31">
          <mxGeometry relative="1" as="geometry" />
        </mxCell>
        <mxCell id="c2ixvgZk76cDXogd91zL-29" value="请求hsp文件链接&lt;br&gt;request({url: hspUrl})" style="rounded=1;whiteSpace=wrap;html=1;fillColor=#dae8fc;strokeColor=#6c8ebf;" vertex="1" parent="1">
          <mxGeometry x="432.5" y="980" width="120" height="60" as="geometry" />
        </mxCell>
        <mxCell id="c2ixvgZk76cDXogd91zL-31" value="返回文件流&lt;br&gt;res.write(body, &#39;binary&#39;)" style="rounded=1;whiteSpace=wrap;html=1;fillColor=#dae8fc;strokeColor=#6c8ebf;" vertex="1" parent="1">
          <mxGeometry x="432.5" y="1080" width="120" height="60" as="geometry" />
        </mxCell>
        <mxCell id="c2ixvgZk76cDXogd91zL-36" value="" style="edgeStyle=orthogonalEdgeStyle;rounded=0;orthogonalLoop=1;jettySize=auto;html=1;fillColor=#f5f5f5;strokeColor=default;" edge="1" parent="1" source="c2ixvgZk76cDXogd91zL-33" target="c2ixvgZk76cDXogd91zL-35">
          <mxGeometry relative="1" as="geometry" />
        </mxCell>
        <mxCell id="c2ixvgZk76cDXogd91zL-33" value="通过request 上传hsp" style="rounded=1;whiteSpace=wrap;html=1;fillColor=#f5f5f5;strokeColor=default;fontColor=#333333;" vertex="1" parent="1">
          <mxGeometry x="97.5" y="10" width="120" height="60" as="geometry" />
        </mxCell>
        <mxCell id="c2ixvgZk76cDXogd91zL-40" value="" style="edgeStyle=orthogonalEdgeStyle;rounded=0;orthogonalLoop=1;jettySize=auto;html=1;fillColor=#f5f5f5;strokeColor=default;" edge="1" parent="1" source="c2ixvgZk76cDXogd91zL-35" target="c2ixvgZk76cDXogd91zL-39">
          <mxGeometry relative="1" as="geometry" />
        </mxCell>
        <mxCell id="c2ixvgZk76cDXogd91zL-35" value="返回hspUrl" style="rounded=1;whiteSpace=wrap;html=1;fillColor=#f5f5f5;strokeColor=default;fontColor=#333333;" vertex="1" parent="1">
          <mxGeometry x="97.5" y="102" width="120" height="60" as="geometry" />
        </mxCell>
        <mxCell id="c2ixvgZk76cDXogd91zL-37" value="存储cacheName(filename)至mongo" style="whiteSpace=wrap;html=1;fillColor=#d5e8d4;strokeColor=#82b366;rounded=1;" vertex="1" parent="1">
          <mxGeometry x="220.63" y="525" width="273.75" height="60" as="geometry" />
        </mxCell>
        <mxCell id="c2ixvgZk76cDXogd91zL-39" value="存储至mongo" style="rounded=1;whiteSpace=wrap;html=1;fillColor=#f5f5f5;strokeColor=default;fontColor=#333333;" vertex="1" parent="1">
          <mxGeometry x="97.5" y="200" width="120" height="60" as="geometry" />
        </mxCell>
        <mxCell id="c2ixvgZk76cDXogd91zL-41" value="jrss" style="text;html=1;align=center;verticalAlign=middle;resizable=0;points=[];autosize=1;strokeColor=none;fillColor=none;" vertex="1" parent="1">
          <mxGeometry x="354" y="95" width="40" height="30" as="geometry" />
        </mxCell>
        <mxCell id="c2ixvgZk76cDXogd91zL-42" value="hsp" style="text;html=1;align=center;verticalAlign=middle;resizable=0;points=[];autosize=1;strokeColor=none;fillColor=none;" vertex="1" parent="1">
          <mxGeometry x="240" y="15" width="40" height="30" as="geometry" />
        </mxCell>
        <mxCell id="c2ixvgZk76cDXogd91zL-43" value="上传流程目前已经全部切至jrss,不再走hsp" style="text;html=1;align=center;verticalAlign=middle;resizable=0;points=[];autosize=1;strokeColor=none;fillColor=none;fontColor=#FF0D0D;" vertex="1" parent="1">
          <mxGeometry x="462.5" y="25" width="250" height="30" as="geometry" />
        </mxCell>
        <mxCell id="c2ixvgZk76cDXogd91zL-46" style="edgeStyle=orthogonalEdgeStyle;rounded=0;orthogonalLoop=1;jettySize=auto;html=1;exitX=0.5;exitY=1;exitDx=0;exitDy=0;strokeColor=default;fontColor=#FF0D0D;" edge="1" parent="1" source="c2ixvgZk76cDXogd91zL-44" target="c2ixvgZk76cDXogd91zL-16">
          <mxGeometry relative="1" as="geometry" />
        </mxCell>
        <mxCell id="c2ixvgZk76cDXogd91zL-44" value="文件下载" style="rounded=1;whiteSpace=wrap;html=1;fillColor=#dae8fc;strokeColor=#6c8ebf;" vertex="1" parent="1">
          <mxGeometry x="297.51" y="620" width="120" height="60" as="geometry" />
        </mxCell>
      </root>
    </mxGraphModel>
  </diagram>
</mxfile>
